<?xml version="1.0" encoding="UTF-8" standalone="no"?>
<!-- Created with Inkscape (http://www.inkscape.org/) -->

<svg
   xmlns:dc="http://purl.org/dc/elements/1.1/"
   xmlns:cc="http://creativecommons.org/ns#"
   xmlns:rdf="http://www.w3.org/1999/02/22-rdf-syntax-ns#"
   xmlns:svg="http://www.w3.org/2000/svg"
   xmlns="http://www.w3.org/2000/svg"
   xmlns:sodipodi="http://sodipodi.sourceforge.net/DTD/sodipodi-0.dtd"
   xmlns:inkscape="http://www.inkscape.org/namespaces/inkscape"
   width="200"
   height="50"
   viewBox="0 0 52.916663 13.229168"
   version="1.1"
   id="svg4612"
   inkscape:version="0.92.4 (5da689c313, 2019-01-14)"
   sodipodi:docname="logo-bco-motracsa.svg">
  <defs
     id="defs4606" />
  <sodipodi:namedview
     id="base"
     pagecolor="#ffffff"
     bordercolor="#666666"
     borderopacity="1.0"
     inkscape:pageopacity="0.0"
     inkscape:pageshadow="2"
     inkscape:zoom="2.8"
     inkscape:cx="26.75939"
     inkscape:cy="47.310195"
     inkscape:document-units="mm"
     inkscape:current-layer="layer1"
     showgrid="false"
     units="px"
     inkscape:window-width="1920"
     inkscape:window-height="1018"
     inkscape:window-x="-8"
     inkscape:window-y="-8"
     inkscape:window-maximized="1" />
  <metadata
     id="metadata4609">
    <rdf:RDF>
      <cc:Work
         rdf:about="">
        <dc:format>image/svg+xml</dc:format>
        <dc:type
           rdf:resource="http://purl.org/dc/dcmitype/StillImage" />
        <dc:title />
      </cc:Work>
    </rdf:RDF>
  </metadata>
  <g
     inkscape:label="Capa 1"
     inkscape:groupmode="layer"
     id="layer1"
     transform="translate(0,-283.77082)">
    <path
       style="fill:#ffffff;fill-opacity:1;stroke-width:0.02812603"
       d="m 45.988062,284.10511 h 1.76e-4 c -0.309044,-0.001 -0.646762,0.0159 -0.808697,0.0539 -0.289777,0.0683 -0.349908,0.12622 -0.349052,0.33614 3.55e-4,0.0743 0.01109,0.18065 0.02401,0.23617 0.03435,0.14781 0.02894,0.42537 -0.01085,0.55942 -0.05546,0.1868 -0.157759,0.34188 -0.35593,0.53953 -0.380031,0.37903 -1.112504,0.78323 -1.605432,0.88594 -0.388281,0.081 -0.634906,0.0124 -0.996981,-0.27666 -0.108018,-0.0863 -0.230824,-0.16822 -0.272897,-0.18211 -0.105208,-0.0347 -0.20803,0.0111 -0.348614,0.15551 -0.308817,0.31705 -0.911193,1.36423 -1.00938,1.75476 -0.07061,0.28079 -0.02516,0.36539 0.256858,0.47793 0.39434,0.15736 0.555446,0.27398 0.692272,0.50104 0.349108,0.57936 0.349062,1.91818 -1.69e-4,2.49875 -0.136825,0.22748 -0.295282,0.34229 -0.712472,0.51626 -0.10771,0.0448 -0.194779,0.0974 -0.221631,0.13368 -0.116362,0.15708 0.01243,0.55069 0.398871,1.2191 0.345515,0.5976 0.668874,1.00321 0.822808,1.03208 0.105737,0.0199 0.159395,-0.006 0.388794,-0.19004 0.215395,-0.17241 0.317155,-0.22677 0.525943,-0.28086 0.165453,-0.0429 0.244697,-0.0426 0.464421,9.2e-4 0.235736,0.0471 0.439721,0.12418 0.739947,0.27964 0.69269,0.35866 1.128001,0.76398 1.233771,1.14873 0.03884,0.14126 0.04434,0.4156 0.01109,0.55557 -0.01318,0.0555 -0.02416,0.1648 -0.02449,0.24287 -5.3e-4,0.12653 0.0064,0.14891 0.06344,0.20595 0.0725,0.0724 0.254621,0.13344 0.474414,0.15879 0.113318,0.0131 0.551694,0.014 0.886166,0.007 0.334473,0.006 0.772845,0.006 0.886168,-0.007 0.219796,-0.0254 0.401906,-0.0862 0.474412,-0.15884 0.05704,-0.057 0.06394,-0.0795 0.06344,-0.20594 -3.52e-4,-0.078 -0.01134,-0.18736 -0.02449,-0.24289 -0.03321,-0.13996 -0.02771,-0.41429 0.01109,-0.55557 0.105774,-0.38474 0.541081,-0.79004 1.233772,-1.1487 0.300226,-0.15546 0.504255,-0.23253 0.739993,-0.27961 0.219726,-0.0439 0.298923,-0.0441 0.464378,-9.2e-4 0.208788,0.0541 0.310548,0.10847 0.525942,0.28086 0.229397,0.18363 0.283055,0.20987 0.388795,0.19004 0.153931,-0.0288 0.477284,-0.43448 0.822805,-1.03208 0.386457,-0.66841 0.515232,-1.06202 0.398867,-1.2191 -0.02682,-0.0363 -0.11391,-0.0888 -0.221628,-0.13368 -0.417191,-0.17396 -0.575642,-0.28878 -0.712469,-0.51626 -0.349201,-0.58057 -0.349292,-1.91937 -1.78e-4,-2.49875 0.136828,-0.22706 0.297935,-0.34368 0.692272,-0.50104 0.282009,-0.11254 0.327503,-0.1971 0.256901,-0.4779 -0.0982,-0.39051 -0.700565,-1.43774 -1.009378,-1.75479 -0.140579,-0.14433 -0.243455,-0.19018 -0.348657,-0.15547 -0.04208,0.0139 -0.164875,0.0958 -0.272894,0.18207 -0.36208,0.28913 -0.608702,0.35756 -0.996984,0.27666 -0.492927,-0.10265 -1.225357,-0.50691 -1.605388,-0.88594 -0.19817,-0.19765 -0.300507,-0.35274 -0.355975,-0.53954 -0.03982,-0.13405 -0.04518,-0.4116 -0.01085,-0.55941 0.01291,-0.0555 0.02372,-0.16181 0.02401,-0.23617 8.82e-4,-0.20992 -0.05931,-0.26785 -0.349094,-0.33614 -0.210999,-0.0498 -0.719376,-0.0645 -1.074978,-0.0469 -0.08268,-0.004 -0.172635,-0.006 -0.26628,-0.007 z m 0.266281,3.30128 h 1.77e-4 c 0.448788,0.006 0.921616,0.0872 1.233858,0.21636 0.166504,0.0689 0.453657,0.22136 0.605733,0.32159 0.209393,0.13798 0.611234,0.53135 0.740343,0.7247 0.04936,0.0738 0.09731,0.13776 0.106562,0.14188 5.3e-4,1.7e-4 0.0013,8.8e-4 0.0018,9.2e-4 -0.376411,1.9e-4 -0.387743,0.0111 -0.387743,0.29722 0,0.11488 -0.01159,0.20896 -0.02585,0.20896 -0.01424,0 -0.194604,-0.1308 -0.400803,-0.29064 -0.206194,-0.15985 -0.401525,-0.30485 -0.434055,-0.32223 -0.04175,-0.0223 -0.136889,-0.0241 -0.323462,-0.006 -0.145365,0.0139 -0.422492,0.0392 -0.615857,0.0562 -0.353275,0.0309 -1.01382,0.12179 -1.223518,0.16809 -0.06188,0.0137 -0.18845,0.0337 -0.281264,0.0445 -0.219114,0.0254 -0.28489,0.0541 -0.600739,0.26171 -0.267253,0.17564 -0.401001,0.21472 -0.476474,0.13925 -0.02107,-0.0211 -0.03373,-0.12557 -0.03373,-0.27825 0,-0.19699 -0.0087,-0.24782 -0.04448,-0.26157 -0.04069,-0.0157 -0.338611,-0.0201 -0.53339,-0.0137 0.002,-0.002 0.0041,-0.004 0.0063,-0.005 0.0092,-0.004 0.05721,-0.0679 0.106563,-0.14184 0.129108,-0.19335 0.530951,-0.58671 0.740343,-0.72471 0.152078,-0.10024 0.43923,-0.25265 0.605734,-0.32156 0.312249,-0.12925 0.785148,-0.21104 1.233946,-0.21637 z m 1.35852,1.59898 0.471126,0.37171 0.471082,0.37175 0.0036,0.42464 c 0.0021,0.23353 0.0041,0.46891 0.0044,0.52304 3.54e-4,0.0541 -0.0013,0.15226 -0.0036,0.218 -0.0025,0.0657 -0.01394,0.11944 -0.02554,0.11932 -0.01159,0 -0.286884,-0.26436 -0.611736,-0.5872 l -0.590662,-0.58698 -0.351638,-0.116 c -0.193388,-0.0638 -0.375918,-0.11598 -0.405619,-0.11598 -0.02971,0 -0.136187,0.0329 -0.236657,0.0731 -0.154249,0.0618 -0.216783,0.0716 -0.401766,0.0631 -0.235996,-0.0111 -0.31193,-0.0471 -0.251074,-0.12043 0.01959,-0.0235 0.175248,-0.15283 0.345896,-0.28718 l 0.310273,-0.24424 0.273464,-0.0353 c 0.150419,-0.0195 0.436584,-0.0434 0.635925,-0.0534 z m 1.485591,0.11316 c 0.06316,0.1334 0.129193,0.29901 0.162343,0.41403 0.01956,0.0679 0.04544,0.15498 0.05749,0.19363 0.03088,0.099 0.06819,0.4537 0.07283,0.69253 0.0039,0.19478 -0.03309,0.53384 -0.07322,0.67304 -0.01072,0.0371 -0.03756,0.12788 -0.05977,0.20192 -0.04429,0.14761 -0.103213,0.2941 -0.17422,0.43654 -0.06835,-0.002 -0.140003,-0.002 -0.205371,-0.007 l -0.0073,-1.28613 -0.0073,-1.28618 0.06358,-0.0145 c 0.02629,-0.006 0.09552,-0.013 0.170979,-0.0179 z m -5.689453,0.002 h 0.168479 c 0.208941,0 0.227312,0.005 0.247221,0.0634 0.01183,0.0348 0.01465,0.62016 0.0063,1.30081 l -0.01516,1.23753 -0.225003,0.0142 -0.157612,0.009 c -0.0748,-0.1477 -0.136554,-0.29994 -0.182586,-0.45337 -0.02221,-0.0741 -0.04911,-0.16489 -0.05977,-0.20191 -0.04012,-0.13922 -0.07701,-0.47826 -0.07322,-0.67305 0.0047,-0.23882 0.04195,-0.59356 0.07283,-0.69253 0.01208,-0.0386 0.03792,-0.12576 0.05749,-0.19363 0.03291,-0.11415 0.09829,-0.27819 0.161029,-0.41109 z m 2.165423,0.1213 c 0.03418,8.8e-4 0.05556,0.005 0.05556,0.0132 0,0.0145 -0.09497,0.10432 -0.210982,0.19945 -0.174652,0.14336 -0.210938,0.18725 -0.210938,0.25511 0,0.10369 0.150219,0.23379 0.350716,0.30383 0.214145,0.0748 0.655209,0.0684 0.863164,-0.0125 l 0.159144,-0.0619 0.248666,0.0786 c 0.136779,0.0433 0.286692,0.0986 0.333101,0.12315 0.0464,0.0244 0.353297,0.31502 0.682021,0.64573 0.558568,0.56196 0.597714,0.60799 0.597714,0.70366 0,0.074 -0.01741,0.11452 -0.06252,0.14619 -0.128238,0.0899 -0.180509,0.0608 -0.556263,-0.30777 -0.19707,-0.19337 -0.369802,-0.3516 -0.383842,-0.3516 -0.01404,0 -0.05365,0.0198 -0.08804,0.0438 -0.124191,0.087 -0.08539,0.169 0.232804,0.49189 0.249061,0.25274 0.295329,0.31356 0.295329,0.38828 0,0.051 -0.02381,0.11241 -0.05626,0.14485 -0.113923,0.1139 -0.182212,0.0795 -0.536809,-0.27075 -0.294158,-0.29053 -0.339242,-0.32495 -0.404349,-0.30861 -0.04031,0.009 -0.08756,0.0497 -0.104985,0.0879 -0.04782,0.10503 -0.130491,0.0885 -0.180046,-0.0359 -0.0776,-0.19482 -0.109275,-0.24017 -0.217906,-0.31205 -0.05947,-0.0393 -0.160565,-0.0786 -0.224653,-0.0872 -0.09483,-0.0128 -0.123794,-0.0314 -0.155552,-0.0999 -0.141382,-0.3057 -0.508435,-0.41306 -0.765055,-0.22373 l -0.09399,0.0693 -0.09977,-0.0955 c -0.25632,-0.24528 -0.501872,-0.24769 -0.754976,-0.007 -0.07729,0.0734 -0.09701,0.081 -0.119099,0.046 -0.03099,-0.049 -0.03624,-1.0114 -0.0057,-1.05767 0.01134,-0.0173 0.09195,-0.0371 0.179127,-0.0442 0.13631,-0.0111 0.197205,-0.0378 0.43502,-0.19195 0.152086,-0.0985 0.321252,-0.19421 0.375913,-0.2126 0.102941,-0.0346 0.320965,-0.0619 0.423539,-0.0596 z m -0.897561,1.65095 c 0.03858,10e-4 0.07403,0.0207 0.109325,0.0559 0.100214,0.10024 0.07332,0.20073 -0.09675,0.36158 -0.08416,0.0797 -0.17106,0.14468 -0.193105,0.14468 -0.02204,0 -0.07343,-0.0261 -0.114193,-0.0583 -0.119814,-0.0942 -0.101123,-0.20397 0.06252,-0.36764 0.095,-0.095 0.167898,-0.13939 0.232188,-0.13636 z m 0.867721,0.11021 c 0.04095,-0.002 0.07478,0.0197 0.113528,0.0583 0.116979,0.11697 0.0807,0.18991 -0.262904,0.52891 -0.345514,0.3409 -0.39392,0.36374 -0.51455,0.24311 -0.111631,-0.11168 -0.07396,-0.18561 0.267811,-0.52595 0.213831,-0.21293 0.317944,-0.30092 0.396112,-0.30439 z m 0.553546,0.42393 c 0.04945,0 0.106798,0.0234 0.135705,0.0554 0.09925,0.10971 0.06632,0.18064 -0.225441,0.48603 -0.151532,0.1586 -0.301857,0.30375 -0.334022,0.32255 -0.135657,0.0792 -0.269391,0.002 -0.269391,-0.1539 0,-0.0928 0.02865,-0.13113 0.303745,-0.40623 0.253254,-0.25325 0.318003,-0.30378 0.389404,-0.30378 z m -1.888494,0.24039 c 0.01898,0.002 0.04291,0.009 0.07296,0.0222 0.05268,0.0225 0.130582,0.0546 0.173121,0.0713 0.04595,0.0181 0.07734,0.0519 0.07734,0.0831 0,0.15375 0.271469,0.37048 0.464074,0.37048 0.05157,0 0.08293,0.0269 0.123253,0.10551 0.101279,0.19751 0.291726,0.31642 0.50675,0.31642 0.09057,0 0.122267,0.0151 0.168783,0.0805 0.03149,0.0442 0.09878,0.10097 0.149552,0.12592 v 0 c 0.200404,0.0988 0.39034,0.0367 0.625626,-0.2041 0.07677,-0.0786 0.155292,-0.14288 0.174526,-0.14288 0.01923,0 0.08027,0.0307 0.135614,0.0682 0.205738,0.13962 0.422651,0.11722 0.578088,-0.0599 0.07788,-0.0887 0.105873,-0.10244 0.197837,-0.097 0.200309,0.0123 0.418207,-0.12007 0.494567,-0.29937 0.02171,-0.0509 0.05486,-0.0966 0.0737,-0.1016 0.276617,-0.0728 0.300638,-0.0738 0.357813,-0.0166 0.04611,0.0461 0.09044,0.055 0.318685,0.0559 -0.219353,0.33399 -0.503708,0.62864 -0.819079,0.83759 -0.353122,0.23396 -0.728326,0.38701 -1.166601,0.47588 -0.05235,0.0111 -0.137288,0.0193 -0.235651,0.0261 v -0.017 l -0.07852,0.0153 c -0.02591,0.005 -0.06534,0.008 -0.112431,0.0111 -0.079,0.002 -0.159122,0.005 -0.2353,0.006 -0.0762,-1.7e-4 -0.156339,-0.002 -0.235345,-0.006 -0.04707,-0.002 -0.08648,-0.006 -0.112393,-0.0111 l -0.07852,-0.0153 v 0.017 c -0.09835,-0.006 -0.183311,-0.0155 -0.235652,-0.0261 -0.438274,-0.0888 -0.813478,-0.24192 -1.166598,-0.47588 -0.315847,-0.20927 -0.600559,-0.50447 -0.820047,-0.83907 0.0404,7.1e-4 0.08556,8.8e-4 0.139691,8.8e-4 0.385458,0 0.393675,-0.004 0.394182,-0.17829 3.53e-4,-0.15075 0.01299,-0.20384 0.06993,-0.19933 z m 2.332674,0.23776 c 0.06374,0 0.128341,0.0668 0.128341,0.1328 0,0.0558 -0.05844,0.13298 -0.233851,0.30839 -0.229629,0.22963 -0.308312,0.27109 -0.379331,0.20007 -0.07517,-0.0752 -0.03196,-0.15472 0.215758,-0.39712 0.13723,-0.13428 0.25834,-0.24414 0.269083,-0.24414 z m 0.495446,0.0562 c 0.0352,0 0.223514,0.22352 0.223514,0.26527 0,0.0221 -0.01986,0.06 -0.04416,0.0844 -0.06146,0.0614 -0.116067,0.0552 -0.193233,-0.022 -0.06094,-0.061 -0.06379,-0.0763 -0.03619,-0.19688 0.01646,-0.072 0.03902,-0.13081 0.05008,-0.13081 z"
       id="path4592"
       inkscape:connector-curvature="0" />
    <path
       style="fill:#ffffff;fill-opacity:1;stroke-width:0.04789177"
       d="m 10.423849,293.21261 c -0.7274423,-0.10997 -1.2816156,-0.52168 -1.5904699,-1.1817 -0.2147407,-0.45888 -0.2874547,-1.32451 -0.1852837,-2.20566 0.075668,-0.65258 0.4573393,-1.24579 1.0061814,-1.56384 0.4302282,-0.24933 0.5803802,-0.27909 1.5414562,-0.30552 0.713024,-0.0196 0.969599,-0.008 1.280984,0.0544 0.842948,0.1708 1.433716,0.73327 1.639212,1.56067 0.08919,0.35915 0.08985,1.707 0.001,2.05935 -0.138685,0.54996 -0.444128,0.98494 -0.891412,1.26941 -0.43981,0.27973 -0.626666,0.31833 -1.628323,0.33635 -0.500469,0.008 -1.028475,-0.002 -1.173346,-0.0234 z m 2.234308,-0.99427 c 0.249235,-0.13327 0.470981,-0.39878 0.566024,-0.67772 0.107189,-0.31457 0.102547,-1.5791 -0.007,-1.90053 -0.09992,-0.29326 -0.451596,-0.64938 -0.720953,-0.73008 -0.253718,-0.076 -1.922695,-0.0775 -2.174956,-0.002 -0.240217,0.0719 -0.5431278,0.33321 -0.6773273,0.58414 -0.098862,0.18483 -0.1061054,0.26051 -0.1061054,1.10832 0,0.79598 0.011187,0.93096 0.089274,1.07758 0.1671713,0.31387 0.4142347,0.52098 0.7485177,0.62745 0.06602,0.021 0.561842,0.0339 1.101821,0.0287 0.912598,-0.008 0.995798,-0.0171 1.180688,-0.11592 z m -8.3288905,0.90855 c -0.06364,-0.071 -0.2747724,-0.4303 -0.7669868,-1.30506 -0.2155936,-0.38312 -0.8505499,-1.4884 -0.9069322,-1.57869 -0.033489,-0.0537 -0.076952,-0.0974 -0.096586,-0.0974 -0.019626,0 -0.041382,0.67348 -0.048341,1.49662 l -0.012656,1.49661 -0.4190542,0.0138 -0.4190517,0.0139 -0.00142,-1.23509 c -9.052e-4,-0.67929 -7.245e-4,-1.79542 1.208e-4,-2.48026 l 0.00162,-1.24518 0.1443089,-0.13172 c 0.2703215,-0.2467 0.4965814,-0.15133 0.7908298,0.33335 0.1177121,0.19387 0.2140209,0.36077 0.2140209,0.37085 0,0.009 0.1293082,0.23738 0.2873501,0.50507 0.1580437,0.2677 0.2873512,0.49498 0.2873512,0.50508 0,0.009 0.1185315,0.21383 0.2634048,0.45276 0.1448718,0.23892 0.263405,0.44116 0.263405,0.44942 0,0.026 0.5468081,0.95853 0.6345664,1.08216 l 0.083807,0.11806 0.083807,-0.11832 c 0.046097,-0.0649 0.107371,-0.16146 0.1361666,-0.21418 0.028791,-0.0528 0.3505643,-0.61311 0.7150356,-1.24528 0.364474,-0.63217 0.7827136,-1.36259 0.9294243,-1.62314 0.4339457,-0.77068 0.6434576,-0.90164 0.9723929,-0.60778 l 0.1564054,0.13973 v 2.45841 2.4584 l -0.4429995,0.0138 -0.4429996,0.0138 v -1.51038 c 0,-0.83072 -0.016364,-1.5104 -0.036371,-1.5104 -0.020006,0 -0.059806,0.0378 -0.088447,0.0837 -0.097833,0.15746 -0.7668186,1.32798 -1.1427721,1.99948 -0.5386072,0.96205 -0.5553933,0.98178 -0.8346641,0.98178 -0.1581406,0 -0.2529628,-0.026 -0.304666,-0.0837 z m 12.4641885,-2.0415 c 0,-1.6677 -0.0125,-2.08784 -0.06355,-2.13016 -0.04046,-0.0336 -0.418829,-0.0575 -1.041646,-0.0657 l -0.9781,-0.013 -0.01412,-0.37859 c -0.0078,-0.20823 0.0045,-0.39727 0.02739,-0.4201 0.03581,-0.0359 1.243099,-0.0474 4.261079,-0.041 l 0.730349,0.002 v 0.43101 0.43104 H 18.76094 c -0.524656,0 -0.988009,0.0132 -1.029675,0.029 -0.06747,0.0259 -0.07574,0.2585 -0.07574,2.13118 v 2.10211 h -0.431034 -0.431025 z m 3.687665,-0.2938 c 0,-2.5427 0.0033,-2.57887 0.24035,-2.70578 0.06368,-0.0339 0.763178,-0.0506 2.091098,-0.0495 1.92256,0.002 2.002942,0.006 2.201585,0.10141 0.113401,0.0549 0.26745,0.17893 0.342343,0.27564 0.236888,0.30587 0.27349,0.45778 0.267384,1.10972 -0.0069,0.72713 -0.105522,1.0419 -0.438355,1.39772 -0.2041,0.21819 -0.570935,0.43452 -0.826719,0.48745 -0.06501,0.0135 -0.177448,0.0371 -0.249884,0.0523 -0.07243,0.0153 -0.130224,0.0544 -0.128416,0.0869 0.0018,0.0325 0.389733,0.39127 0.862053,0.79743 0.47232,0.40617 0.858764,0.75636 0.858764,0.77823 0,0.0218 -0.287909,0.0398 -0.639796,0.0398 h -0.639796 l -0.234228,-0.20289 c -0.128826,-0.11162 -0.245007,-0.21474 -0.258176,-0.22926 -0.01318,-0.0145 -0.335844,-0.29498 -0.71705,-0.62326 l -0.693103,-0.59688 -0.33657,-0.024 -0.336568,-0.024 v -0.43102 -0.43102 l 1.173348,-0.024 c 1.127285,-0.0231 1.180459,-0.0283 1.354432,-0.13653 0.280664,-0.17451 0.369809,-0.39853 0.368939,-0.92715 -3.62e-4,-0.24471 -0.02071,-0.47649 -0.04513,-0.5151 -0.03703,-0.0586 -0.29484,-0.0733 -1.554351,-0.0894 -0.83048,-0.009 -1.564244,-0.006 -1.630586,0.0114 l -0.120622,0.0303 -0.01251,2.09447 -0.0125,2.09447 -0.442998,0.0138 -0.442999,0.0137 z m 6.051286,2.29836 c -0.01538,-0.0401 -0.01716,-0.72433 -0.0041,-1.52057 0.02099,-1.26557 0.03579,-1.48385 0.117769,-1.73505 0.276989,-0.84887 0.779675,-1.37772 1.573258,-1.65515 0.367283,-0.12838 1.067975,-0.17152 2.287265,-0.14078 l 0.950123,0.024 0.115471,0.13436 0.115471,0.13438 v 2.41767 2.41766 l -0.442998,-0.0138 -0.443001,-0.0138 -0.02394,-0.6226 -0.02394,-0.62259 -1.556482,-0.0134 c -0.856066,-0.007 -1.604974,-0.002 -1.664239,0.0128 -0.104869,0.0255 -0.107756,0.0429 -0.107756,0.64793 v 0.62169 h -0.432498 c -0.343003,0 -0.438314,-0.0151 -0.460489,-0.0728 z m 4.245443,-3.1068 c 0,-0.89008 -0.0099,-1.02837 -0.07574,-1.05362 -0.11489,-0.0442 -1.536782,-0.033 -1.865514,0.0147 -0.885581,0.1282 -1.411153,0.76618 -1.411153,1.71299 v 0.35049 h 1.676211 1.676213 z m 2.880186,3.12501 c -0.43486,-0.1259 -0.73765,-0.46027 -0.850284,-0.93891 -0.08256,-0.35089 -0.09219,-2.71101 -0.01262,-3.08684 0.08959,-0.42297 0.321492,-0.74938 0.650057,-0.915 0.276737,-0.13947 0.206759,-0.13668 3.283177,-0.13046 l 0.706403,0.002 v 0.43102 0.43103 l -1.18532,0.008 c -0.651927,0.005 -1.406836,0.004 -1.677574,-0.002 -0.564716,-0.014 -0.786929,0.0408 -0.865608,0.21346 -0.07488,0.16435 -0.07645,2.79421 -0.0018,2.95813 0.02925,0.0641 0.105684,0.14062 0.169874,0.16987 0.07863,0.0359 0.679144,0.0532 1.840417,0.0532 h 1.723716 l -0.01382,0.41905 -0.01382,0.41906 -1.795941,0.007 c -1.048063,0.005 -1.862962,-0.0114 -1.956884,-0.0386 z"
       id="path4529-8"
       inkscape:connector-curvature="0"
       sodipodi:nodetypes="ccsccsscsccccsccccsscscccssssccccccccscsssccscssscccccsscssccscccscccccscscccsccccsccccccsscscccccccsccccccccccccccsscccccccccccscsccsccscccscccccccccccccscccccc" />
  </g>
</svg>
